<svg xmlns="http://www.w3.org/2000/svg" width="200" height="200" class="icon" shape-rendering="geometricPrecision" version="1.1" viewBox="0 0 1024 1024"><path fill="#ff5252" d="M303.5 432A80 80 0 0 1 291.5 592A80 80 0 0 1 303.5 432z"/><path fill="#ff5252" d="M512 65A447 447 0 0 1 512 959L512 929A417 417 0 0 0 512 95A417 417 0 0 0 512 929L512 959A447 447 0 0 1 512 65z M512 95A417 417 0 0 1 929 512A208.5 208.5 0 0 1 720.5 720.5L720.5 592A80 80 0 0 0 720.5 432A80 80 0 0 0 720.5 592L720.5 720.5A208.5 208.5 0 0 1 512 512A208.5 208.5 0 0 0 303.5 303.5A208.5 208.5 0 0 0 95 512A417 417 0 0 1 512 95z"/></svg>